<svg width="1022" height="268" viewBox="0 0 1022 268" fill="none" xmlns="http://www.w3.org/2000/svg">
<path fill-rule="evenodd" clip-rule="evenodd" d="M0.173253 6.22806H0V139.701H106.14L0.173253 6.22806ZM172.413 60.07L215.151 113.907V6.22806L172.413 60.07ZM109.46 6.22806H109.095L64.7321 62.1022L126.341 139.701H215.146V139.353L109.456 6.22806H109.46Z" fill="#E2AC26"/>
<path d="M268.763 140.465V2.36737H295.396V140.465H268.763Z" fill="#14213D"/>
<path d="M356.25 142.832C346.254 142.832 337.311 141.122 329.42 137.703C321.66 134.283 315.479 129.285 310.875 122.709C306.404 116.133 304.102 108.176 303.97 98.8382H332.182C332.313 102.915 333.365 106.598 335.338 109.886C337.311 113.174 340.007 115.804 343.427 117.777C346.978 119.619 351.187 120.539 356.053 120.539C360.261 120.539 363.878 119.882 366.903 118.566C370.06 117.12 372.493 115.147 374.203 112.648C375.913 110.149 376.767 107.19 376.767 103.77C376.767 99.8246 375.781 96.5366 373.808 93.9061C371.967 91.2757 369.336 89.0398 365.917 87.1985C362.629 85.3573 358.749 83.7132 354.277 82.2665C349.937 80.6882 345.334 79.0442 340.468 77.3345C329.551 73.7834 321.2 69.0486 315.413 63.1302C309.757 57.2117 306.93 49.3862 306.93 39.6536C306.93 31.3678 308.902 24.2657 312.848 18.3472C316.925 12.4287 322.515 7.89127 329.617 4.73476C336.719 1.57825 344.808 0 353.883 0C363.221 0 371.375 1.64401 378.346 4.93204C385.448 8.08855 391.037 12.6918 395.115 18.7418C399.323 24.7917 401.493 31.8939 401.625 40.0482H373.216C373.085 37.0232 372.164 34.1955 370.454 31.5651C368.876 28.8031 366.64 26.633 363.747 25.0548C360.853 23.345 357.434 22.4901 353.488 22.4901C350.069 22.3586 346.912 22.8847 344.019 24.0684C341.257 25.2521 339.021 27.0276 337.311 29.395C335.733 31.6308 334.944 34.4586 334.944 37.8781C334.944 41.1661 335.733 43.9281 337.311 46.1639C339.021 48.3998 341.322 50.3726 344.216 52.0824C347.109 53.6606 350.529 55.1731 354.475 56.6199C358.42 57.9351 362.695 59.3161 367.298 60.7628C374.137 63.1302 380.45 65.9579 386.237 69.2459C392.024 72.4024 396.627 76.5453 400.047 81.6747C403.466 86.804 405.176 93.5773 405.176 101.995C405.176 109.228 403.269 115.936 399.455 122.117C395.641 128.299 390.117 133.297 382.883 137.111C375.781 140.925 366.903 142.832 356.25 142.832Z" fill="#14213D"/>
<path d="M477.68 142.832C464.265 142.832 452.428 139.807 442.169 133.757C431.911 127.707 423.888 119.355 418.101 108.702C412.314 97.9175 409.421 85.4888 409.421 71.416C409.421 57.3432 412.314 44.9802 418.101 34.327C423.888 23.5423 431.911 15.1249 442.169 9.07496C452.428 3.02499 464.265 0 477.68 0C491.227 0 503.129 3.02499 513.388 9.07496C523.647 15.1249 531.604 23.5423 537.259 34.327C543.046 44.9802 545.94 57.3432 545.94 71.416C545.94 85.4888 543.046 97.9175 537.259 108.702C531.604 119.355 523.647 127.707 513.388 133.757C503.129 139.807 491.227 142.832 477.68 142.832ZM477.68 118.961C486.097 118.961 493.331 117.054 499.381 113.24C505.563 109.294 510.363 103.77 513.783 96.6681C517.202 89.5659 518.912 81.1486 518.912 71.416C518.912 61.5519 517.202 53.1346 513.783 46.1639C510.363 39.0618 505.563 33.6037 499.381 29.7895C493.331 25.9754 486.097 24.0684 477.68 24.0684C469.394 24.0684 462.161 25.9754 455.979 29.7895C449.798 33.6037 444.997 39.0618 441.578 46.1639C438.158 53.1346 436.448 61.5519 436.448 71.416C436.448 81.1486 438.158 89.5659 441.578 96.6681C444.997 103.77 449.798 109.294 455.979 113.24C462.161 117.054 469.394 118.961 477.68 118.961Z" fill="#14213D"/>
<path d="M615.418 142.832C602.266 142.832 590.824 139.939 581.091 134.152C571.359 128.233 563.796 120.013 558.404 109.491C553.011 98.8382 550.315 86.4752 550.315 72.4024C550.315 58.1981 553.077 45.7036 558.601 34.9189C564.125 24.0026 572.082 15.4537 582.472 9.27224C592.862 3.09075 605.291 0 619.758 0C635.936 0 649.351 3.87987 660.004 11.6396C670.789 19.3994 677.759 30.1841 680.916 43.9938H651.126C649.153 37.9439 645.471 33.2091 640.078 29.7895C634.818 26.2385 627.979 24.4629 619.561 24.4629C610.618 24.4629 602.989 26.4358 596.676 30.3814C590.363 34.327 585.563 39.8509 582.275 46.9531C578.987 54.0552 577.343 62.5383 577.343 72.4024C577.343 82.398 578.987 90.8811 582.275 97.8518C585.563 104.822 590.232 110.149 596.282 113.832C602.463 117.383 609.697 119.158 617.983 119.158C630.083 119.158 639.224 115.936 645.405 109.491C651.718 102.915 655.466 94.4322 656.65 84.042H622.718V64.1166H683.48V140.465H658.82L656.847 122.907C653.954 127.247 650.534 130.929 646.589 133.954C642.775 136.848 638.303 139.018 633.174 140.465C628.044 142.043 622.126 142.832 615.418 142.832Z" fill="#14213D"/>
<path d="M694.591 140.465V2.36737H746.082C757.261 2.36737 766.468 4.27443 773.701 8.08855C780.935 11.9027 786.327 17.032 789.879 23.4765C793.43 29.7895 795.205 36.8259 795.205 44.5857C795.205 51.9509 793.495 58.8557 790.076 65.3003C786.656 71.6133 781.264 76.7426 773.899 80.6883C766.665 84.5024 757.327 86.4094 745.885 86.4094H721.224V140.465H694.591ZM766.205 140.465L737.796 79.7018H766.599L796.586 140.465H766.205ZM721.224 67.0758H744.504C752.527 67.0758 758.445 65.103 762.259 61.1574C766.073 57.2117 767.98 52.0166 767.98 45.5721C767.98 39.1275 766.073 34.064 762.259 30.3814C758.576 26.5673 752.658 24.6602 744.504 24.6602H721.224V67.0758Z" fill="#14213D"/>
<path d="M795.966 140.465L846.471 2.36737H876.655L926.962 140.465H898.75L861.464 32.7488L823.98 140.465H795.966ZM818.259 109.097L825.361 88.3822H895.594L902.499 109.097H818.259Z" fill="#14213D"/>
<path d="M931.299 140.465V2.36737H1021.26V23.8711H957.932V60.7628H1008.63V81.6747H957.932V140.465H931.299Z" fill="#14213D"/>
<path d="M216.833 261.465H210.484L210.526 258.186H216.833C219.005 258.186 220.815 257.733 222.263 256.828C223.711 255.91 224.797 254.629 225.521 252.986C226.259 251.329 226.628 249.394 226.628 247.18V245.321C226.628 243.581 226.419 242.036 226.001 240.685C225.583 239.321 224.971 238.172 224.163 237.239C223.356 236.293 222.367 235.576 221.198 235.088C220.042 234.601 218.713 234.357 217.209 234.357H210.359V231.058H217.209C219.2 231.058 221.017 231.392 222.66 232.06C224.302 232.715 225.716 233.668 226.899 234.921C228.096 236.16 229.015 237.664 229.656 239.432C230.296 241.186 230.616 243.163 230.616 245.363V247.18C230.616 249.38 230.296 251.364 229.656 253.132C229.015 254.886 228.089 256.383 226.878 257.622C225.681 258.861 224.233 259.815 222.534 260.483C220.85 261.137 218.949 261.465 216.833 261.465ZM212.635 231.058V261.465H208.605V231.058H212.635Z" fill="#14213D"/>
<path d="M240.286 238.868V261.465H236.401V238.868H240.286ZM236.109 232.875C236.109 232.248 236.297 231.719 236.673 231.288C237.062 230.856 237.633 230.64 238.385 230.64C239.123 230.64 239.687 230.856 240.077 231.288C240.48 231.719 240.682 232.248 240.682 232.875C240.682 233.473 240.48 233.989 240.077 234.42C239.687 234.838 239.123 235.047 238.385 235.047C237.633 235.047 237.062 234.838 236.673 234.42C236.297 233.989 236.109 233.473 236.109 232.875Z" fill="#14213D"/>
<path d="M255.865 261.882C254.292 261.882 252.865 261.618 251.584 261.089C250.317 260.546 249.224 259.787 248.305 258.812C247.4 257.838 246.704 256.682 246.217 255.346C245.729 254.009 245.486 252.547 245.486 250.96V250.083C245.486 248.245 245.757 246.609 246.3 245.175C246.843 243.727 247.581 242.502 248.514 241.5C249.447 240.497 250.505 239.739 251.688 239.223C252.871 238.708 254.097 238.451 255.364 238.451C256.979 238.451 258.371 238.729 259.54 239.286C260.724 239.843 261.691 240.623 262.443 241.625C263.195 242.614 263.752 243.783 264.114 245.133C264.476 246.47 264.657 247.932 264.657 249.519V251.252H247.783V248.099H260.793V247.807C260.738 246.804 260.529 245.83 260.167 244.883C259.819 243.936 259.262 243.157 258.496 242.544C257.73 241.931 256.686 241.625 255.364 241.625C254.486 241.625 253.679 241.813 252.941 242.189C252.203 242.551 251.57 243.094 251.041 243.818C250.512 244.542 250.101 245.426 249.809 246.47C249.516 247.514 249.37 248.719 249.37 250.083V250.96C249.37 252.032 249.516 253.042 249.809 253.988C250.115 254.921 250.553 255.742 251.124 256.453C251.709 257.163 252.412 257.719 253.233 258.123C254.069 258.527 255.016 258.729 256.074 258.729C257.438 258.729 258.594 258.45 259.54 257.893C260.487 257.337 261.315 256.592 262.026 255.659L264.365 257.518C263.877 258.256 263.258 258.959 262.506 259.627C261.754 260.295 260.828 260.838 259.728 261.256C258.642 261.673 257.355 261.882 255.865 261.882Z" fill="#14213D"/>
<path d="M285.541 261.465H281.677V236.488C281.677 234.859 281.97 233.487 282.554 232.374C283.153 231.246 284.009 230.397 285.123 229.826C286.237 229.241 287.559 228.949 289.091 228.949C289.536 228.949 289.982 228.976 290.427 229.032C290.887 229.088 291.332 229.171 291.764 229.283L291.555 232.436C291.263 232.367 290.929 232.318 290.553 232.29C290.191 232.262 289.829 232.248 289.467 232.248C288.645 232.248 287.935 232.415 287.337 232.749C286.752 233.07 286.306 233.543 286 234.17C285.694 234.796 285.541 235.569 285.541 236.488V261.465ZM290.344 238.868V241.834H278.106V238.868H290.344Z" fill="#14213D"/>
<path d="M303.522 261.882C301.948 261.882 300.521 261.618 299.24 261.089C297.973 260.546 296.881 259.787 295.962 258.812C295.057 257.838 294.361 256.682 293.873 255.346C293.386 254.009 293.142 252.547 293.142 250.96V250.083C293.142 248.245 293.414 246.609 293.957 245.175C294.5 243.727 295.238 242.502 296.171 241.5C297.103 240.497 298.161 239.739 299.345 239.223C300.528 238.708 301.753 238.451 303.02 238.451C304.635 238.451 306.028 238.729 307.197 239.286C308.381 239.843 309.348 240.623 310.1 241.625C310.852 242.614 311.409 243.783 311.771 245.133C312.133 246.47 312.314 247.932 312.314 249.519V251.252H295.44V248.099H308.45V247.807C308.395 246.804 308.186 245.83 307.824 244.883C307.476 243.936 306.919 243.157 306.153 242.544C305.387 241.931 304.343 241.625 303.02 241.625C302.143 241.625 301.336 241.813 300.598 242.189C299.86 242.551 299.227 243.094 298.697 243.818C298.168 244.542 297.758 245.426 297.465 246.47C297.173 247.514 297.027 248.719 297.027 250.083V250.96C297.027 252.032 297.173 253.042 297.465 253.988C297.772 254.921 298.21 255.742 298.781 256.453C299.366 257.163 300.069 257.719 300.89 258.123C301.726 258.527 302.672 258.729 303.73 258.729C305.095 258.729 306.25 258.45 307.197 257.893C308.144 257.337 308.972 256.592 309.682 255.659L312.021 257.518C311.534 258.256 310.915 258.959 310.163 259.627C309.411 260.295 308.485 260.838 307.385 261.256C306.299 261.673 305.011 261.882 303.522 261.882Z" fill="#14213D"/>
<path d="M321.022 238.868V261.465H317.138V238.868H321.022ZM316.845 232.875C316.845 232.248 317.033 231.719 317.409 231.288C317.799 230.856 318.37 230.64 319.122 230.64C319.86 230.64 320.424 230.856 320.813 231.288C321.217 231.719 321.419 232.248 321.419 232.875C321.419 233.473 321.217 233.989 320.813 234.42C320.424 234.838 319.86 235.047 319.122 235.047C318.37 235.047 317.799 234.838 317.409 234.42C317.033 233.989 316.845 233.473 316.845 232.875Z" fill="#14213D"/>
<path d="M331.088 243.693V261.465H327.225V238.868H330.879L331.088 243.693ZM330.169 249.31L328.561 249.248C328.575 247.702 328.805 246.275 329.25 244.966C329.696 243.644 330.323 242.495 331.13 241.521C331.938 240.546 332.898 239.794 334.012 239.265C335.14 238.722 336.386 238.451 337.75 238.451C338.864 238.451 339.866 238.604 340.757 238.91C341.648 239.203 342.407 239.676 343.034 240.33C343.674 240.985 344.161 241.834 344.496 242.878C344.83 243.908 344.997 245.168 344.997 246.658V261.465H341.112V246.616C341.112 245.433 340.938 244.486 340.59 243.776C340.242 243.052 339.734 242.53 339.066 242.21C338.398 241.876 337.576 241.709 336.602 241.709C335.641 241.709 334.764 241.91 333.97 242.314C333.191 242.718 332.515 243.275 331.944 243.985C331.388 244.695 330.949 245.509 330.629 246.428C330.323 247.333 330.169 248.294 330.169 249.31Z" fill="#14213D"/>
<path d="M360.242 261.882C358.669 261.882 357.242 261.618 355.961 261.089C354.694 260.546 353.601 259.787 352.682 258.812C351.777 257.838 351.081 256.682 350.594 255.346C350.106 254.009 349.863 252.547 349.863 250.96V250.083C349.863 248.245 350.134 246.609 350.677 245.175C351.22 243.727 351.958 242.502 352.891 241.5C353.824 240.497 354.882 239.739 356.065 239.223C357.249 238.708 358.474 238.451 359.741 238.451C361.356 238.451 362.748 238.729 363.918 239.286C365.101 239.843 366.069 240.623 366.82 241.625C367.572 242.614 368.129 243.783 368.491 245.133C368.853 246.47 369.034 247.932 369.034 249.519V251.252H352.16V248.099H365.171V247.807C365.115 246.804 364.906 245.83 364.544 244.883C364.196 243.936 363.639 243.157 362.873 242.544C362.108 241.931 361.063 241.625 359.741 241.625C358.864 241.625 358.056 241.813 357.318 242.189C356.58 242.551 355.947 243.094 355.418 243.818C354.889 244.542 354.478 245.426 354.186 246.47C353.893 247.514 353.747 248.719 353.747 250.083V250.96C353.747 252.032 353.893 253.042 354.186 253.988C354.492 254.921 354.931 255.742 355.501 256.453C356.086 257.163 356.789 257.719 357.611 258.123C358.446 258.527 359.393 258.729 360.451 258.729C361.815 258.729 362.971 258.45 363.918 257.893C364.864 257.337 365.693 256.592 366.403 255.659L368.742 257.518C368.254 258.256 367.635 258.959 366.883 259.627C366.131 260.295 365.205 260.838 364.106 261.256C363.02 261.673 361.732 261.882 360.242 261.882Z" fill="#14213D"/>
<path d="M395.995 233.752L385.929 261.465H381.815L393.405 231.058H396.058L395.995 233.752ZM404.432 261.465L394.345 233.752L394.283 231.058H396.935L408.567 261.465H404.432ZM403.91 250.208V253.508H386.827V250.208H403.91Z" fill="#14213D"/>
<path d="M415.918 242.419V261.465H412.055V238.868H415.814L415.918 242.419ZM422.977 238.743L422.956 242.335C422.636 242.265 422.33 242.224 422.037 242.21C421.759 242.182 421.438 242.168 421.077 242.168C420.185 242.168 419.399 242.307 418.717 242.586C418.034 242.864 417.457 243.254 416.983 243.755C416.51 244.256 416.134 244.855 415.856 245.551C415.591 246.233 415.417 246.985 415.333 247.807L414.248 248.433C414.248 247.069 414.38 245.788 414.644 244.591C414.923 243.393 415.347 242.335 415.918 241.416C416.489 240.483 417.213 239.759 418.09 239.244C418.981 238.715 420.039 238.451 421.264 238.451C421.543 238.451 421.863 238.486 422.225 238.555C422.587 238.611 422.838 238.673 422.977 238.743Z" fill="#14213D"/>
<path d="M437.053 238.868V241.834H424.836V238.868H437.053ZM428.971 233.376H432.834V255.868C432.834 256.634 432.952 257.211 433.189 257.601C433.426 257.991 433.732 258.249 434.108 258.374C434.484 258.499 434.888 258.562 435.319 258.562C435.639 258.562 435.974 258.534 436.322 258.478C436.684 258.409 436.955 258.353 437.136 258.311L437.157 261.465C436.851 261.562 436.447 261.653 435.946 261.736C435.458 261.834 434.867 261.882 434.171 261.882C433.224 261.882 432.354 261.694 431.56 261.318C430.767 260.943 430.133 260.316 429.66 259.439C429.2 258.548 428.971 257.351 428.971 255.847V233.376Z" fill="#14213D"/>
<path d="M445.093 256.87V259.982C445.093 261.249 444.773 262.585 444.132 263.992C443.492 265.412 442.594 266.595 441.438 267.542L439.245 266.017C439.691 265.405 440.067 264.778 440.373 264.138C440.679 263.511 440.909 262.857 441.062 262.175C441.229 261.506 441.313 260.796 441.313 260.045V256.87H445.093Z" fill="#14213D"/>
<path d="M476.815 257.977L484.542 264.096L481.827 266.602L474.226 260.567L476.815 257.977ZM484.438 245.301V247.222C484.438 249.505 484.153 251.552 483.582 253.362C483.011 255.172 482.189 256.71 481.117 257.977C480.045 259.244 478.758 260.212 477.254 260.88C475.764 261.548 474.094 261.882 472.242 261.882C470.446 261.882 468.796 261.548 467.292 260.88C465.803 260.212 464.508 259.244 463.408 257.977C462.322 256.71 461.48 255.172 460.881 253.362C460.282 251.552 459.983 249.505 459.983 247.222V245.301C459.983 243.017 460.275 240.978 460.86 239.182C461.459 237.372 462.301 235.833 463.387 234.566C464.473 233.285 465.761 232.311 467.251 231.643C468.754 230.974 470.404 230.64 472.2 230.64C474.052 230.64 475.729 230.974 477.233 231.643C478.737 232.311 480.024 233.285 481.097 234.566C482.169 235.833 482.99 237.372 483.561 239.182C484.146 240.978 484.438 243.017 484.438 245.301ZM480.449 247.222V245.259C480.449 243.449 480.261 241.848 479.885 240.456C479.523 239.063 478.987 237.894 478.277 236.947C477.567 236 476.704 235.283 475.688 234.796C474.671 234.309 473.509 234.065 472.2 234.065C470.961 234.065 469.833 234.309 468.817 234.796C467.814 235.283 466.951 236 466.227 236.947C465.503 237.894 464.946 239.063 464.557 240.456C464.167 241.848 463.972 243.449 463.972 245.259V247.222C463.972 249.046 464.167 250.661 464.557 252.067C464.946 253.459 465.503 254.636 466.227 255.596C466.965 256.543 467.842 257.26 468.859 257.747C469.875 258.235 471.003 258.478 472.242 258.478C473.551 258.478 474.713 258.235 475.729 257.747C476.746 257.26 477.602 256.543 478.298 255.596C479.008 254.636 479.544 253.459 479.906 252.067C480.268 250.661 480.449 249.046 480.449 247.222Z" fill="#14213D"/>
<path d="M503.902 256.244V238.868H507.786V261.465H504.09L503.902 256.244ZM504.633 251.482L506.241 251.44C506.241 252.944 506.081 254.336 505.76 255.617C505.454 256.884 504.953 257.984 504.257 258.917C503.561 259.85 502.649 260.581 501.521 261.11C500.393 261.625 499.022 261.882 497.407 261.882C496.307 261.882 495.298 261.722 494.379 261.402C493.474 261.082 492.694 260.588 492.04 259.919C491.385 259.251 490.877 258.381 490.515 257.309C490.167 256.237 489.993 254.949 489.993 253.445V238.868H493.857V253.487C493.857 254.503 493.968 255.346 494.191 256.014C494.427 256.668 494.741 257.19 495.13 257.58C495.534 257.956 495.98 258.221 496.467 258.374C496.968 258.527 497.483 258.604 498.012 258.604C499.655 258.604 500.957 258.29 501.918 257.664C502.878 257.023 503.567 256.167 503.985 255.095C504.417 254.009 504.633 252.805 504.633 251.482Z" fill="#14213D"/>
<path d="M526.999 257.601V245.969C526.999 245.078 526.818 244.305 526.456 243.651C526.108 242.982 525.579 242.467 524.869 242.105C524.159 241.743 523.282 241.562 522.238 241.562C521.263 241.562 520.407 241.729 519.669 242.064C518.945 242.398 518.374 242.836 517.956 243.379C517.553 243.922 517.351 244.507 517.351 245.133H513.487C513.487 244.326 513.696 243.525 514.114 242.732C514.532 241.938 515.13 241.221 515.91 240.581C516.703 239.926 517.65 239.411 518.75 239.035C519.864 238.646 521.103 238.451 522.467 238.451C524.11 238.451 525.558 238.729 526.811 239.286C528.078 239.843 529.067 240.685 529.777 241.813C530.501 242.927 530.863 244.326 530.863 246.011V256.536C530.863 257.288 530.925 258.088 531.051 258.938C531.19 259.787 531.392 260.518 531.656 261.13V261.465H527.626C527.431 261.019 527.278 260.427 527.166 259.69C527.055 258.938 526.999 258.242 526.999 257.601ZM527.667 247.765L527.709 250.48H523.804C522.704 250.48 521.723 250.57 520.859 250.751C519.996 250.918 519.272 251.176 518.687 251.524C518.103 251.872 517.657 252.311 517.351 252.84C517.045 253.355 516.891 253.96 516.891 254.657C516.891 255.367 517.051 256.014 517.372 256.599C517.692 257.183 518.172 257.65 518.813 257.998C519.467 258.332 520.268 258.499 521.214 258.499C522.398 258.499 523.442 258.249 524.347 257.747C525.252 257.246 525.969 256.634 526.498 255.91C527.041 255.186 527.333 254.482 527.375 253.8L529.025 255.659C528.927 256.244 528.663 256.891 528.231 257.601C527.8 258.311 527.222 258.993 526.498 259.648C525.788 260.288 524.939 260.824 523.95 261.256C522.975 261.673 521.876 261.882 520.65 261.882C519.119 261.882 517.775 261.583 516.62 260.984C515.478 260.386 514.587 259.585 513.947 258.583C513.32 257.566 513.007 256.432 513.007 255.179C513.007 253.967 513.244 252.902 513.717 251.983C514.19 251.051 514.873 250.278 515.764 249.665C516.655 249.039 517.727 248.565 518.98 248.245C520.233 247.925 521.632 247.765 523.177 247.765H527.667Z" fill="#14213D"/>
<path d="M541.137 229.387V261.465H537.253V229.387H541.137Z" fill="#14213D"/>
<path d="M551.538 238.868V261.465H547.653V238.868H551.538ZM547.361 232.875C547.361 232.248 547.549 231.719 547.925 231.288C548.315 230.856 548.885 230.64 549.637 230.64C550.375 230.64 550.939 230.856 551.329 231.288C551.732 231.719 551.934 232.248 551.934 232.875C551.934 233.473 551.732 233.989 551.329 234.42C550.939 234.838 550.375 235.047 549.637 235.047C548.885 235.047 548.315 234.838 547.925 234.42C547.549 233.989 547.361 233.473 547.361 232.875Z" fill="#14213D"/>
<path d="M567.2 238.868V241.834H554.983V238.868H567.2ZM559.118 233.376H562.982V255.868C562.982 256.634 563.1 257.211 563.337 257.601C563.574 257.991 563.88 258.249 564.256 258.374C564.632 258.499 565.035 258.562 565.467 258.562C565.787 258.562 566.121 258.534 566.469 258.478C566.831 258.409 567.103 258.353 567.284 258.311L567.305 261.465C566.999 261.562 566.595 261.653 566.094 261.736C565.606 261.834 565.015 261.882 564.318 261.882C563.372 261.882 562.502 261.694 561.708 261.318C560.914 260.943 560.281 260.316 559.808 259.439C559.348 258.548 559.118 257.351 559.118 255.847V233.376Z" fill="#14213D"/>
<path d="M585.056 257.601V245.969C585.056 245.078 584.875 244.305 584.513 243.651C584.165 242.982 583.636 242.467 582.926 242.105C582.216 241.743 581.339 241.562 580.295 241.562C579.32 241.562 578.464 241.729 577.726 242.064C577.002 242.398 576.431 242.836 576.013 243.379C575.61 243.922 575.408 244.507 575.408 245.133H571.544C571.544 244.326 571.753 243.525 572.171 242.732C572.588 241.938 573.187 241.221 573.967 240.581C574.76 239.926 575.707 239.411 576.807 239.035C577.921 238.646 579.16 238.451 580.524 238.451C582.167 238.451 583.615 238.729 584.868 239.286C586.135 239.843 587.124 240.685 587.834 241.813C588.558 242.927 588.92 244.326 588.92 246.011V256.536C588.92 257.288 588.982 258.088 589.108 258.938C589.247 259.787 589.449 260.518 589.713 261.13V261.465H585.683C585.488 261.019 585.335 260.427 585.223 259.69C585.112 258.938 585.056 258.242 585.056 257.601ZM585.724 247.765L585.766 250.48H581.861C580.761 250.48 579.779 250.57 578.916 250.751C578.053 250.918 577.329 251.176 576.744 251.524C576.16 251.872 575.714 252.311 575.408 252.84C575.101 253.355 574.948 253.96 574.948 254.657C574.948 255.367 575.108 256.014 575.429 256.599C575.749 257.183 576.229 257.65 576.87 257.998C577.524 258.332 578.325 258.499 579.271 258.499C580.455 258.499 581.499 258.249 582.404 257.747C583.309 257.246 584.026 256.634 584.555 255.91C585.098 255.186 585.39 254.482 585.432 253.8L587.082 255.659C586.984 256.244 586.72 256.891 586.288 257.601C585.857 258.311 585.279 258.993 584.555 259.648C583.845 260.288 582.996 260.824 582.007 261.256C581.032 261.673 579.933 261.882 578.707 261.882C577.176 261.882 575.832 261.583 574.677 260.984C573.535 260.386 572.644 259.585 572.004 258.583C571.377 257.566 571.064 256.432 571.064 255.179C571.064 253.967 571.301 252.902 571.774 251.983C572.247 251.051 572.93 250.278 573.821 249.665C574.712 249.039 575.784 248.565 577.037 248.245C578.29 247.925 579.689 247.765 581.234 247.765H585.724ZM574.217 232.833C574.217 232.206 574.412 231.677 574.802 231.246C575.192 230.814 575.756 230.598 576.494 230.598C577.246 230.598 577.816 230.814 578.206 231.246C578.596 231.677 578.791 232.206 578.791 232.833C578.791 233.432 578.596 233.947 578.206 234.378C577.816 234.796 577.246 235.005 576.494 235.005C575.756 235.005 575.192 234.796 574.802 234.378C574.412 233.947 574.217 233.432 574.217 232.833ZM583.218 232.875C583.218 232.248 583.406 231.719 583.782 231.288C584.172 230.856 584.743 230.64 585.495 230.64C586.233 230.64 586.796 230.856 587.186 231.288C587.59 231.719 587.792 232.248 587.792 232.875C587.792 233.473 587.59 233.989 587.186 234.42C586.796 234.838 586.233 235.047 585.495 235.047C584.743 235.047 584.172 234.838 583.782 234.42C583.406 233.989 583.218 233.473 583.218 232.875Z" fill="#14213D"/>
<path d="M604.457 238.868V241.834H592.24V238.868H604.457ZM596.375 233.376H600.239V255.868C600.239 256.634 600.357 257.211 600.594 257.601C600.83 257.991 601.137 258.249 601.513 258.374C601.888 258.499 602.292 258.562 602.724 258.562C603.044 258.562 603.378 258.534 603.726 258.478C604.088 258.409 604.36 258.353 604.541 258.311L604.562 261.465C604.255 261.562 603.851 261.653 603.35 261.736C602.863 261.834 602.271 261.882 601.575 261.882C600.628 261.882 599.758 261.694 598.965 261.318C598.171 260.943 597.538 260.316 597.064 259.439C596.605 258.548 596.375 257.351 596.375 255.847V233.376Z" fill="#14213D"/>
<path d="M636.43 258.29V261.465H619.995V258.29H636.43ZM635.825 241.604L620.872 261.465H618.512V258.624L633.36 238.868H635.825V241.604ZM634.112 238.868V242.064H618.679V238.868H634.112Z" fill="#14213D"/>
<path d="M654.641 256.244V238.868H658.525V261.465H654.829L654.641 256.244ZM655.372 251.482L656.98 251.44C656.98 252.944 656.82 254.336 656.5 255.617C656.193 256.884 655.692 257.984 654.996 258.917C654.3 259.85 653.388 260.581 652.26 261.11C651.132 261.625 649.761 261.882 648.146 261.882C647.046 261.882 646.037 261.722 645.118 261.402C644.213 261.082 643.433 260.588 642.779 259.919C642.125 259.251 641.616 258.381 641.254 257.309C640.906 256.237 640.732 254.949 640.732 253.445V238.868H644.596V253.487C644.596 254.503 644.707 255.346 644.93 256.014C645.167 256.668 645.48 257.19 645.87 257.58C646.273 257.956 646.719 258.221 647.206 258.374C647.707 258.527 648.223 258.604 648.752 258.604C650.395 258.604 651.696 258.29 652.657 257.664C653.618 257.023 654.307 256.167 654.724 255.095C655.156 254.009 655.372 252.805 655.372 251.482Z" fill="#14213D"/>
<path d="M688.18 255.471C688.18 254.914 688.055 254.399 687.804 253.926C687.568 253.438 687.073 253 686.322 252.61C685.584 252.206 684.47 251.858 682.98 251.566C681.727 251.301 680.592 250.988 679.576 250.626C678.574 250.264 677.717 249.825 677.007 249.31C676.311 248.795 675.775 248.19 675.399 247.493C675.023 246.797 674.836 245.983 674.836 245.05C674.836 244.159 675.03 243.317 675.42 242.523C675.824 241.729 676.388 241.026 677.112 240.414C677.85 239.801 678.734 239.321 679.764 238.973C680.794 238.625 681.943 238.451 683.21 238.451C685.02 238.451 686.565 238.771 687.846 239.411C689.127 240.052 690.109 240.908 690.791 241.98C691.473 243.038 691.814 244.215 691.814 245.509H687.951C687.951 244.883 687.763 244.277 687.387 243.693C687.025 243.094 686.489 242.6 685.779 242.21C685.082 241.82 684.226 241.625 683.21 241.625C682.138 241.625 681.268 241.792 680.599 242.126C679.945 242.446 679.465 242.857 679.158 243.358C678.866 243.86 678.72 244.389 678.72 244.946C678.72 245.363 678.789 245.739 678.929 246.073C679.082 246.393 679.346 246.693 679.722 246.971C680.098 247.236 680.627 247.486 681.309 247.723C681.992 247.96 682.862 248.196 683.92 248.433C685.772 248.851 687.296 249.352 688.493 249.937C689.691 250.522 690.582 251.239 691.167 252.088C691.751 252.937 692.044 253.967 692.044 255.179C692.044 256.167 691.835 257.072 691.417 257.893C691.013 258.715 690.422 259.425 689.642 260.024C688.876 260.608 687.957 261.068 686.885 261.402C685.827 261.722 684.637 261.882 683.314 261.882C681.323 261.882 679.639 261.527 678.26 260.817C676.882 260.107 675.838 259.188 675.128 258.061C674.418 256.933 674.063 255.742 674.063 254.489H677.947C678.003 255.548 678.309 256.39 678.866 257.016C679.423 257.629 680.105 258.068 680.913 258.332C681.72 258.583 682.521 258.708 683.314 258.708C684.372 258.708 685.257 258.569 685.967 258.29C686.691 258.012 687.24 257.629 687.616 257.142C687.992 256.654 688.18 256.097 688.18 255.471Z" fill="#14213D"/>
<path d="M701.316 238.868V261.465H697.432V238.868H701.316ZM697.139 232.875C697.139 232.248 697.327 231.719 697.703 231.288C698.093 230.856 698.664 230.64 699.416 230.64C700.154 230.64 700.717 230.856 701.107 231.288C701.511 231.719 701.713 232.248 701.713 232.875C701.713 233.473 701.511 233.989 701.107 234.42C700.717 234.838 700.154 235.047 699.416 235.047C698.664 235.047 698.093 234.838 697.703 234.42C697.327 233.989 697.139 233.473 697.139 232.875Z" fill="#14213D"/>
<path d="M716.561 258.708C717.48 258.708 718.329 258.52 719.109 258.144C719.889 257.768 720.529 257.253 721.03 256.599C721.532 255.93 721.817 255.172 721.887 254.322H725.562C725.493 255.659 725.04 256.905 724.205 258.061C723.383 259.202 722.304 260.128 720.968 260.838C719.631 261.534 718.162 261.882 716.561 261.882C714.863 261.882 713.38 261.583 712.113 260.984C710.86 260.386 709.816 259.564 708.98 258.52C708.159 257.476 707.54 256.278 707.122 254.928C706.718 253.564 706.516 252.123 706.516 250.605V249.728C706.516 248.21 706.718 246.776 707.122 245.426C707.54 244.061 708.159 242.857 708.98 241.813C709.816 240.769 710.86 239.947 712.113 239.349C713.38 238.75 714.863 238.451 716.561 238.451C718.329 238.451 719.875 238.813 721.198 239.537C722.52 240.247 723.557 241.221 724.309 242.46C725.075 243.686 725.493 245.078 725.562 246.637H721.887C721.817 245.704 721.553 244.862 721.093 244.11C720.648 243.358 720.035 242.76 719.255 242.314C718.49 241.855 717.592 241.625 716.561 241.625C715.378 241.625 714.382 241.862 713.575 242.335C712.781 242.795 712.148 243.421 711.674 244.215C711.215 244.994 710.881 245.864 710.672 246.825C710.477 247.772 710.38 248.739 710.38 249.728V250.605C710.38 251.594 710.477 252.568 710.672 253.529C710.867 254.489 711.194 255.36 711.654 256.139C712.127 256.919 712.76 257.545 713.554 258.019C714.362 258.478 715.364 258.708 716.561 258.708Z" fill="#14213D"/>
<path d="M733.77 229.387V261.465H729.906V229.387H733.77ZM732.851 249.31L731.243 249.248C731.257 247.702 731.486 246.275 731.932 244.966C732.377 243.644 733.004 242.495 733.811 241.521C734.619 240.546 735.579 239.794 736.693 239.265C737.821 238.722 739.067 238.451 740.431 238.451C741.545 238.451 742.548 238.604 743.439 238.91C744.33 239.203 745.089 239.676 745.715 240.33C746.356 240.985 746.843 241.834 747.177 242.878C747.511 243.908 747.678 245.168 747.678 246.658V261.465H743.794V246.616C743.794 245.433 743.62 244.486 743.272 243.776C742.924 243.052 742.415 242.53 741.747 242.21C741.079 241.876 740.257 241.709 739.283 241.709C738.322 241.709 737.445 241.91 736.651 242.314C735.872 242.718 735.197 243.275 734.626 243.985C734.069 244.695 733.63 245.509 733.31 246.428C733.004 247.333 732.851 248.294 732.851 249.31Z" fill="#14213D"/>
<path d="M762.84 261.882C761.267 261.882 759.84 261.618 758.559 261.089C757.292 260.546 756.199 259.787 755.28 258.812C754.375 257.838 753.679 256.682 753.191 255.346C752.704 254.009 752.461 252.547 752.461 250.96V250.083C752.461 248.245 752.732 246.609 753.275 245.175C753.818 243.727 754.556 242.502 755.489 241.5C756.422 240.497 757.48 239.739 758.663 239.223C759.846 238.708 761.072 238.451 762.339 238.451C763.954 238.451 765.346 238.729 766.515 239.286C767.699 239.843 768.666 240.623 769.418 241.625C770.17 242.614 770.727 243.783 771.089 245.133C771.451 246.47 771.632 247.932 771.632 249.519V251.252H754.758V248.099H767.768V247.807C767.713 246.804 767.504 245.83 767.142 244.883C766.794 243.936 766.237 243.157 765.471 242.544C764.705 241.931 763.661 241.625 762.339 241.625C761.462 241.625 760.654 241.813 759.916 242.189C759.178 242.551 758.545 243.094 758.016 243.818C757.487 244.542 757.076 245.426 756.784 246.47C756.491 247.514 756.345 248.719 756.345 250.083V250.96C756.345 252.032 756.491 253.042 756.784 253.988C757.09 254.921 757.528 255.742 758.099 256.453C758.684 257.163 759.387 257.719 760.208 258.123C761.044 258.527 761.991 258.729 763.049 258.729C764.413 258.729 765.569 258.45 766.515 257.893C767.462 257.337 768.291 256.592 769.001 255.659L771.34 257.518C770.852 258.256 770.233 258.959 769.481 259.627C768.729 260.295 767.803 260.838 766.703 261.256C765.617 261.673 764.329 261.882 762.84 261.882Z" fill="#14213D"/>
<path d="M780.006 242.419V261.465H776.143V238.868H779.902L780.006 242.419ZM787.065 238.743L787.044 242.335C786.724 242.265 786.418 242.224 786.125 242.21C785.847 242.182 785.527 242.168 785.165 242.168C784.274 242.168 783.487 242.307 782.805 242.586C782.123 242.864 781.545 243.254 781.071 243.755C780.598 244.256 780.222 244.855 779.944 245.551C779.679 246.233 779.505 246.985 779.422 247.807L778.336 248.433C778.336 247.069 778.468 245.788 778.732 244.591C779.011 243.393 779.435 242.335 780.006 241.416C780.577 240.483 781.301 239.759 782.178 239.244C783.069 238.715 784.127 238.451 785.353 238.451C785.631 238.451 785.951 238.486 786.313 238.555C786.675 238.611 786.926 238.673 787.065 238.743Z" fill="#14213D"/>
<path d="M794.5 243.693V261.465H790.636V238.868H794.291L794.5 243.693ZM793.581 249.31L791.973 249.248C791.987 247.702 792.216 246.275 792.662 244.966C793.107 243.644 793.734 242.495 794.541 241.521C795.349 240.546 796.31 239.794 797.423 239.265C798.551 238.722 799.797 238.451 801.162 238.451C802.275 238.451 803.278 238.604 804.169 238.91C805.06 239.203 805.819 239.676 806.445 240.33C807.086 240.985 807.573 241.834 807.907 242.878C808.241 243.908 808.408 245.168 808.408 246.658V261.465H804.524V246.616C804.524 245.433 804.35 244.486 804.002 243.776C803.654 243.052 803.146 242.53 802.477 242.21C801.809 241.876 800.988 241.709 800.013 241.709C799.052 241.709 798.175 241.91 797.382 242.314C796.602 242.718 795.927 243.275 795.356 243.985C794.799 244.695 794.36 245.509 794.04 246.428C793.734 247.333 793.581 248.294 793.581 249.31Z" fill="#14213D"/>
<path d="M814.339 259.418C814.339 258.764 814.541 258.214 814.945 257.768C815.363 257.309 815.961 257.079 816.741 257.079C817.521 257.079 818.112 257.309 818.516 257.768C818.934 258.214 819.143 258.764 819.143 259.418C819.143 260.058 818.934 260.601 818.516 261.047C818.112 261.492 817.521 261.715 816.741 261.715C815.961 261.715 815.363 261.492 814.945 261.047C814.541 260.601 814.339 260.058 814.339 259.418Z" fill="#14213D"/>
</svg>
