<svg width="1022" height="143" viewBox="0 0 1022 143" fill="none" xmlns="http://www.w3.org/2000/svg">
<path fill-rule="evenodd" clip-rule="evenodd" d="M0.173253 6.228H0V139.701H106.14L0.173253 6.228ZM172.413 60.0699L215.151 113.907V6.228L172.413 60.0699ZM109.46 6.228H109.095L64.7321 62.1021L126.341 139.701H215.146V139.353L109.456 6.228H109.46Z" fill="#E2AC26"/>
<path d="M268.606 140.465V2.36737H295.239V140.465H268.606Z" fill="#14213D"/>
<path d="M356.093 142.832C346.097 142.832 337.154 141.122 329.263 137.703C321.503 134.283 315.321 129.285 310.718 122.709C306.246 116.133 303.945 108.176 303.813 98.8382H332.024C332.156 102.915 333.208 106.598 335.181 109.886C337.154 113.174 339.85 115.804 343.27 117.777C346.821 119.619 351.029 120.539 355.896 120.539C360.104 120.539 363.721 119.882 366.746 118.566C369.903 117.12 372.336 115.147 374.046 112.648C375.755 110.149 376.61 107.19 376.61 103.77C376.61 99.8246 375.624 96.5366 373.651 93.9061C371.81 91.2757 369.179 89.0398 365.76 87.1985C362.472 85.3573 358.592 83.7132 354.12 82.2665C349.78 80.6882 345.177 79.0442 340.31 77.3345C329.394 73.7834 321.042 69.0486 315.256 63.1302C309.6 57.2117 306.772 49.3862 306.772 39.6536C306.772 31.3678 308.745 24.2657 312.691 18.3472C316.768 12.4287 322.358 7.89127 329.46 4.73476C336.562 1.57825 344.651 0 353.725 0C363.063 0 371.218 1.64401 378.188 4.93204C385.291 8.08855 390.88 12.6918 394.957 18.7418C399.166 24.7917 401.336 31.8939 401.468 40.0482H373.059C372.928 37.0232 372.007 34.1955 370.297 31.5651C368.719 28.8031 366.483 26.633 363.59 25.0548C360.696 23.345 357.277 22.4901 353.331 22.4901C349.911 22.3586 346.755 22.8847 343.861 24.0684C341.099 25.2521 338.864 27.0276 337.154 29.395C335.576 31.6308 334.786 34.4586 334.786 37.8781C334.786 41.1661 335.576 43.9281 337.154 46.1639C338.864 48.3998 341.165 50.3726 344.059 52.0824C346.952 53.6606 350.372 55.1731 354.317 56.6199C358.263 57.9351 362.537 59.3161 367.141 60.7628C373.98 63.1302 380.293 65.9579 386.08 69.2459C391.867 72.4024 396.47 76.5453 399.889 81.6747C403.309 86.804 405.019 93.5773 405.019 101.995C405.019 109.228 403.112 115.936 399.298 122.117C395.483 128.299 389.96 133.297 382.726 137.111C375.624 140.925 366.746 142.832 356.093 142.832Z" fill="#14213D"/>
<path d="M477.523 142.832C464.108 142.832 452.271 139.807 442.012 133.757C431.753 127.707 423.731 119.355 417.944 108.702C412.157 97.9175 409.263 85.4888 409.263 71.416C409.263 57.3432 412.157 44.9802 417.944 34.327C423.731 23.5423 431.753 15.1249 442.012 9.07496C452.271 3.02499 464.108 0 477.523 0C491.07 0 502.972 3.02499 513.231 9.07496C523.489 15.1249 531.447 23.5423 537.102 34.327C542.889 44.9802 545.782 57.3432 545.782 71.416C545.782 85.4888 542.889 97.9175 537.102 108.702C531.447 119.355 523.489 127.707 513.231 133.757C502.972 139.807 491.07 142.832 477.523 142.832ZM477.523 118.961C485.94 118.961 493.174 117.054 499.224 113.24C505.405 109.294 510.206 103.77 513.625 96.6681C517.045 89.5659 518.755 81.1486 518.755 71.416C518.755 61.5519 517.045 53.1346 513.625 46.1639C510.206 39.0618 505.405 33.6037 499.224 29.7895C493.174 25.9754 485.94 24.0684 477.523 24.0684C469.237 24.0684 462.003 25.9754 455.822 29.7895C449.64 33.6037 444.84 39.0618 441.42 46.1639C438.001 53.1346 436.291 61.5519 436.291 71.416C436.291 81.1486 438.001 89.5659 441.42 96.6681C444.84 103.77 449.64 109.294 455.822 113.24C462.003 117.054 469.237 118.961 477.523 118.961Z" fill="#14213D"/>
<path d="M615.261 142.832C602.109 142.832 590.667 139.939 580.934 134.152C571.201 128.233 563.639 120.013 558.247 109.491C552.854 98.8382 550.158 86.4752 550.158 72.4024C550.158 58.1981 552.92 45.7036 558.444 34.9189C563.968 24.0026 571.925 15.4537 582.315 9.27224C592.705 3.09075 605.134 0 619.601 0C635.778 0 649.193 3.87987 659.847 11.6396C670.631 19.3994 677.602 30.1841 680.759 43.9938H650.969C648.996 37.9439 645.314 33.2091 639.921 29.7895C634.66 26.2385 627.821 24.4629 619.404 24.4629C610.46 24.4629 602.832 26.4358 596.519 30.3814C590.206 34.327 585.406 39.8509 582.118 46.9531C578.83 54.0552 577.186 62.5383 577.186 72.4024C577.186 82.398 578.83 90.8811 582.118 97.8518C585.406 104.822 590.075 110.149 596.125 113.832C602.306 117.383 609.54 119.158 617.826 119.158C629.926 119.158 639.066 115.936 645.248 109.491C651.561 102.915 655.309 94.4322 656.493 84.042H622.56V64.1166H683.323V140.465H658.663L656.69 122.907C653.797 127.247 650.377 130.929 646.432 133.954C642.617 136.848 638.146 139.018 633.016 140.465C627.887 142.043 621.969 142.832 615.261 142.832Z" fill="#14213D"/>
<path d="M694.434 140.465V2.36737H745.925C757.104 2.36737 766.311 4.27443 773.544 8.08855C780.778 11.9027 786.17 17.032 789.721 23.4765C793.272 29.7895 795.048 36.8259 795.048 44.5857C795.048 51.9509 793.338 58.8557 789.919 65.3003C786.499 71.6133 781.107 76.7426 773.741 80.6883C766.508 84.5024 757.17 86.4094 745.727 86.4094H721.067V140.465H694.434ZM766.047 140.465L737.639 79.7018H766.442L796.429 140.465H766.047ZM721.067 67.0758H744.346C752.369 67.0758 758.288 65.103 762.102 61.1574C765.916 57.2117 767.823 52.0166 767.823 45.5721C767.823 39.1275 765.916 34.064 762.102 30.3814C758.419 26.5673 752.501 24.6602 744.346 24.6602H721.067V67.0758Z" fill="#14213D"/>
<path d="M795.809 140.465L846.313 2.36737H876.497L926.804 140.465H898.593L861.307 32.7488L823.823 140.465H795.809ZM818.102 109.097L825.204 88.3822H895.437L902.341 109.097H818.102Z" fill="#14213D"/>
<path d="M931.141 140.465V2.36737H1021.1V23.8711H957.775V60.7628H1008.48V81.6747H957.775V140.465H931.141Z" fill="#14213D"/>
</svg>
